<svg height="512pt" viewBox="-43 0 512 512.001" width="512pt" xmlns="http://www.w3.org/2000/svg"><path d="m397.628906 0h-369.644531c-8.058594 0-14.589844 6.53125-14.589844 14.589844v251.292968h398.824219v-251.292968c0-8.058594-6.53125-14.589844-14.589844-14.589844zm0 0" fill="#855151"/><path d="m412.21875 125.214844h-125.214844v-125.214844h-15.453125v125.214844h-117.488281v-125.214844h-15.453125v125.214844h-125.214844v15.453125h125.214844v125.214843h15.453125v-125.214843h117.488281v125.214843h15.453125v-125.214843h125.214844zm0 0" fill="#704444"/><path d="m397.628906 0h-32.46875c8.054688 0 14.589844 6.53125 14.589844 14.589844v251.292968h32.46875v-251.292968c0-8.058594-6.53125-14.589844-14.589844-14.589844zm0 0" fill="#704444"/><path d="m358.511719 260.925781c-36.820313-5.257812-33.652344-27.433593-70.472657-32.6875-36.820312-5.257812-39.988281 16.917969-76.804687 11.660157-36.820313-5.253907-33.65625-27.429688-70.476563-32.6875-36.820312-5.257813-39.988281 16.917968-76.808593 11.660156-28.542969-4.074219-33.0625-18.3125-50.800781-26.960938-6.070313-2.957031-13.148438 1.410156-13.148438 8.164063v277.820312c0 18.835938 15.269531 34.105469 34.105469 34.105469h357.398437c18.835938 0 34.109375-15.269531 34.109375-34.105469v-219.679687c0-5.617188-5.050781-9.917969-10.589843-8.988282-19.589844 3.285157-27.875 15.789063-56.511719 11.699219zm0 0" fill="#ff9838"/><path d="m90.824219 414.609375h243.964843c6.050782 0 10.957032-4.90625 10.957032-10.957031v-66.976563c0-6.054687-4.90625-10.960937-10.957032-10.960937h-243.964843c-6.050781 0-10.957031 4.90625-10.957031 10.960937v66.976563c0 6.050781 4.90625 10.957031 10.957031 10.957031zm0 0" fill="#fef1da"/><path d="m415.023438 249.226562c-13.691407 2.292969-21.867188 9.085938-35.316407 11.578126h.027344c7.308594 0 13.234375 5.925781 13.234375 13.234374v204.019532c0 17.707031-13.496094 32.261718-30.761719 33.941406h29.296875c18.835938 0 34.109375-15.269531 34.109375-34.105469v-219.679687c0-5.617188-5.050781-9.917969-10.589843-8.988282zm0 0" fill="#ff8709"/></svg>